<svg xmlns="http://www.w3.org/2000/svg" width="1200" height="820" viewBox="0 0 1200 820" role="img" aria-labelledby="title desc">
  <title id="title">Fan hopium crash cartoon</title>
  <desc id="desc">Cartoon fan confidence meter crashing after kickoff.</desc>
  <rect width="1200" height="820" fill="#eef8ff"/>
  <path d="M54 62c250-38 830-34 1090 8 38 178 34 496-20 682-284 40-790 36-1070-8C18 524 18 238 54 62Z" fill="#fffdf3" stroke="#141414" stroke-width="7"/>
  <g transform="translate(104 82)">
    <rect width="560" height="126" rx="24" fill="#f8c54f" stroke="#141414" stroke-width="6"/>
    <text x="28" y="50" fill="#141414" font-family="Comic Sans MS, Marker Felt, sans-serif" font-size="36" font-weight="900">HOPIUM MARKET CRASH</text>
    <text x="28" y="90" fill="#141414" font-family="Comic Sans MS, Marker Felt, sans-serif" font-size="25">Kickoff turned optimism into paperwork.</text>
  </g>
  <g transform="translate(280 270)">
    <rect width="620" height="300" rx="30" fill="#141414" stroke="#141414" stroke-width="7"/>
    <text x="310" y="62" text-anchor="middle" fill="#fffdf3" font-family="Arial Black, Arial, sans-serif" font-size="36">FAN CONFIDENCE</text>
    <path d="M80 220 190 150 290 176 390 116 530 232" fill="none" stroke="#8ad0ff" stroke-width="12" stroke-linecap="round" stroke-linejoin="round"/>
    <path d="M390 116 530 232" stroke="#e85b45" stroke-width="16" stroke-linecap="round"/>
    <text x="130" y="112" fill="#f8c54f" font-family="Comic Sans MS, Marker Felt, sans-serif" font-size="32" font-weight="900">99%</text>
    <text x="484" y="274" fill="#e85b45" font-family="Comic Sans MS, Marker Felt, sans-serif" font-size="32" font-weight="900">prayer mode</text>
  </g>
  <g transform="translate(910 560)">
    <circle cx="64" cy="64" r="50" fill="#f1bd7c" stroke="#141414" stroke-width="6"/>
    <path d="M40 74c18-16 34-16 50 0" fill="none" stroke="#141414" stroke-width="5" stroke-linecap="round"/>
    <path d="M38 52h8M82 52h8" stroke="#141414" stroke-width="7" stroke-linecap="round"/>
  </g>
</svg>
