<svg xmlns="http://www.w3.org/2000/svg" width="512" height="512" viewBox="0 0 512 512" role="img" aria-labelledby="title desc">
  <title id="title">The Daily Walrus app icon</title>
  <desc id="desc">Cartoon Judge Gil walrus face with newspaper tusks and football receipt mark.</desc>
  <rect width="512" height="512" rx="96" fill="#fff7df"/>
  <rect x="28" y="28" width="456" height="456" rx="78" fill="#fbf7ec" stroke="#1a1714" stroke-width="18"/>
  <path d="M78 104h356" stroke="#1a1714" stroke-width="10" stroke-linecap="round"/>
  <path d="M78 132h356" stroke="#1a1714" stroke-width="4" stroke-linecap="round"/>
  <path d="M78 380h356" stroke="#1a1714" stroke-width="10" stroke-linecap="round"/>
  <g transform="translate(104 94)">
    <path d="M92 76c46-58 148-58 194 0 40 50 32 146-14 196-52 57-180 57-232 0C-6 222-14 126 26 76Z" fill="#6f4d36" stroke="#1a1714" stroke-width="14"/>
    <ellipse cx="156" cy="178" rx="102" ry="86" fill="#8b674d"/>
    <ellipse cx="156" cy="196" rx="66" ry="52" fill="#f4ecd8" stroke="#1a1714" stroke-width="10"/>
    <circle cx="124" cy="152" r="12" fill="#1a1714"/>
    <circle cx="188" cy="152" r="12" fill="#1a1714"/>
    <path d="M128 208c18 16 42 16 58 0" fill="none" stroke="#1a1714" stroke-width="10" stroke-linecap="round"/>
    <path d="M122 226 82 330" stroke="#fffdf3" stroke-width="22" stroke-linecap="round"/>
    <path d="M190 226 230 330" stroke="#fffdf3" stroke-width="22" stroke-linecap="round"/>
    <path d="M44 64c52-62 172-62 224 0" fill="none" stroke="#1a1714" stroke-width="18" stroke-linecap="round"/>
    <path d="M54 288c52 50 152 50 204 0" fill="none" stroke="#1a1714" stroke-width="16" stroke-linecap="round"/>
  </g>
  <g transform="translate(324 318)">
    <circle cx="54" cy="54" r="46" fill="#fffdf3" stroke="#1a1714" stroke-width="10"/>
    <path d="M18 52h72M32 22l44 64M32 86l44-64" stroke="#1a1714" stroke-width="7" stroke-linecap="round"/>
  </g>
  <rect x="74" y="396" width="248" height="44" rx="8" fill="#37c3b0" stroke="#1a1714" stroke-width="8"/>
  <text x="198" y="426" text-anchor="middle" fill="#1a1714" font-family="Anton, Impact, Arial Black, sans-serif" font-size="28" letter-spacing="2">GIL REMEMBERS</text>
</svg>
